<svg xmlns="http://www.w3.org/2000/svg" xmlns:xlink="http://www.w3.org/1999/xlink" width="203.478" height="85.843" viewBox="0 0 203.478 85.843"><defs><style>.a,.b,.c,.d{fill-rule:evenodd;}.a{fill:url(#a);}.b{fill:url(#b);}.c{fill:url(#c);}.d{fill:url(#d);}.e{fill:#922b35;}</style><radialGradient id="a" cx="0.5" cy="0.5" r="0.5" gradientTransform="matrix(1.001, 0, 0, -1, 0, 1)" gradientUnits="objectBoundingBox"><stop offset="0" stop-color="#252422"/><stop offset="1" stop-color="#f6f8f9"/></radialGradient><linearGradient id="b" x1="1.416" y1="-2.405" x2="0.304" y2="1.032" gradientUnits="objectBoundingBox"><stop offset="0" stop-color="#e68c1c"/><stop offset="1" stop-color="#922b35"/></linearGradient><linearGradient id="c" x1="0.624" y1="0.187" x2="0.188" y2="1.727" xlink:href="#b"/><linearGradient id="d" x1="0.747" y1="-0.152" x2="0.25" y2="0.762" xlink:href="#b"/></defs><g transform="translate(27)"><g transform="translate(-27 0)"><g transform="translate(0 0)"><path class="a" d="M2186.758,3784.069q-1.453-.581-2.96-1.1h0a74.613,74.613,0,0,0-17.382-3.672h0l-.015.166a73.439,73.439,0,0,1,20.195,4.7h0a62.885,62.885,0,0,0-13.441,9.952h0c-.972.945-1.891,1.89-2.768,2.835h0a97.956,97.956,0,0,1-8.387-13.058h0l-.148.078a98.191,98.191,0,0,0,8.42,13.105h0a66.035,66.035,0,0,0-11.191,16.3h0a55.161,55.161,0,0,1-4.062-22.24h0l-.167,0a55.335,55.335,0,0,0,4.133,22.448h0a73.091,73.091,0,0,0-5.393,16.29h0l.163.036a73,73,0,0,1,5.317-16.118h0a57.246,57.246,0,0,0,12.409,18.312h0a49.282,49.282,0,0,0,14.306,9.889h0a113.276,113.276,0,0,1-13.608,3.617h0l.035.163a112.568,112.568,0,0,0,13.789-3.68h0a60.749,60.749,0,0,0,6.578,2.57h0a77.031,77.031,0,0,0,19.428,3.5h0l.008-.167a72.763,72.763,0,0,1-25.771-5.991h0a54.3,54.3,0,0,0,17.7-10.118h0c6.4,5.256,11.748,8.612,16.991,10.816h0c0,.017,0,.033-.005.05h0l.167.017a59.626,59.626,0,0,0-.811-18.932h0a54.169,54.169,0,0,0-2.547-8.536h0a52.142,52.142,0,0,0,2.458-4.92h0c2.606-5.986,4.01-12.179,5.317-19.636l-.165-.029c-1.516,8.656-3.234,16.433-7.7,24.358h0a56.871,56.871,0,0,0-12.77-19.263h0c-.7-.7-1.429-1.395-2.174-2.056h0a54.009,54.009,0,0,0-15.751-9.6h0a77.874,77.874,0,0,1,22.069-7.807h0l-.033-.165a77.989,77.989,0,0,0-22.234,7.89Zm-.239,31.385a174.542,174.542,0,0,1-16.031-18.368h0c.882-.951,1.805-1.9,2.784-2.851h0a62.733,62.733,0,0,1,13.521-9.994h0a53.966,53.966,0,0,1,15.8,9.632h0c.743.659,1.472,1.349,2.167,2.049h0a56.422,56.422,0,0,1,12.792,19.316h0a63.69,63.69,0,0,1-10.348,13.371h0c-1.08,1.091-2.169,2.1-3.265,3.052h0c-5.007-4.12-10.663-9.4-17.424-16.206Zm-14.922,16.522a57.058,57.058,0,0,1-12.431-18.4h0a65.856,65.856,0,0,1,11.206-16.368h0a174.868,174.868,0,0,0,16.029,18.362h0c6.754,6.8,12.406,12.076,17.413,16.2h0a54.234,54.234,0,0,1-17.79,10.127h0a49.164,49.164,0,0,1-14.427-9.922Zm32.477-.208q1.638-1.416,3.253-3.042h0a63.882,63.882,0,0,0,10.317-13.266h0a58.355,58.355,0,0,1,3.308,27.059h0c-5.2-2.195-10.519-5.534-16.877-10.751h0Z" transform="translate(-2148.144 -3768.891)"/><path class="b" d="M3231.1,5358.521h-.008a.679.679,0,0,0-.437.165h0a38.181,38.181,0,0,1-20.328,8.883h0a.676.676,0,0,0-.6.713h0l.58,8.836a.675.675,0,0,0,.73.627h0a42.83,42.83,0,0,0,26.537-11.979h0a.676.676,0,0,0,.014-.961h0l-6.011-6.086a.668.668,0,0,0-.479-.2Z" transform="translate(-3164.692 -5291.912)"/><path class="c" d="M2454.642,3624.763h6.2a.673.673,0,0,0,.675-.679h0a42.983,42.983,0,0,0-42.978-42.3h0a42.824,42.824,0,0,0-28.449,10.761h0a.677.677,0,0,0-.042.977h0l.905.94a.677.677,0,0,0,.92.047h0a38.383,38.383,0,0,1,24.609-8.8h0c20.749,0,37.57,16.12,37.57,36.005h0q0,1.177-.078,2.334h0a.671.671,0,0,0,.671.715Z" transform="translate(-2375.552 -3581.781)"/><path class="d" d="M2019.9,3940.6a42.26,42.26,0,0,0-11.555,29.329h0a42.986,42.986,0,0,0,39.692,42.858h0a.672.672,0,0,0,.719-.653h0l.246-8.568a.671.671,0,0,0-.653-.692h0a38.337,38.337,0,0,1-23.885-8.955h0a100.507,100.507,0,0,0,29.934-20.92h0c8.047-8.131,13.034-14.723,16.834-21.436h0a.677.677,0,0,0-.053-.743h0a13.23,13.23,0,0,0-2.144-2.155h0a.673.673,0,0,0-1,.2h0c-3.774,6.584-8.761,13.145-16.654,21.121h0c-10.284,10.393-19.911,16.132-30.043,20.974h0a35.046,35.046,0,0,1-9.643-24.082h0a35.077,35.077,0,0,1,9.982-24.441h0a.675.675,0,0,0,.02-.921h0l-.812-.9a.671.671,0,0,0-.5-.223h0a.679.679,0,0,0-.49.209Z" transform="translate(-2008.34 -3926.945)"/></g><g transform="translate(76.786 48.333)"><path class="e" d="M4117.19,4889.459h7.209v-2.78h-7.209v-3.209h8.149v-2.76H4113.96v15.4h11.509v-2.782h-8.279Z" transform="translate(-4111.809 -4880.347)"/><path class="e" d="M4471.86,4889.59c0,.058.013.225.043.5s.085.682.17,1.209l.279,1.8a13.89,13.89,0,0,0-.578-1.861,9.46,9.46,0,0,0-.663-1.434l-5.561-9.113h-3.53v15.4h3.23v-9.306l-.277-1.326-.386-2.075.235.856q.193.6.461,1.3a7.7,7.7,0,0,0,.5,1.113l5.733,9.433h3.572v-15.4h-3.229Z" transform="translate(-4446.819 -4880.329)"/><path class="e" d="M4831.18,4883.491h4.685v12.621h3.231v-12.621h4.706v-2.781H4831.18Z" transform="translate(-4802.14 -4880.347)"/><path class="e" d="M5191.611,4889.459h7.208v-2.78h-7.208v-3.209h8.149v-2.76h-11.38v15.4h11.508v-2.782h-8.277Z" transform="translate(-5145.949 -4880.347)"/><path class="e" d="M5545.438,4885.725q-.3,1.583-2.268,1.583h-3.508V4883.5h3.551q2.267,0,2.269,1.775a3.671,3.671,0,0,1-.044.449Zm2.845,7.958-.043-.621-.042-.428v-.876a3.541,3.541,0,0,0-.642-2.247,2.406,2.406,0,0,0-1.625-.941l.428-.107a3.461,3.461,0,0,0,1.668-1.337,3.822,3.822,0,0,0,.62-2.171c0-.014-.008-.143-.021-.384a3.708,3.708,0,0,0-.063-.557,3.573,3.573,0,0,0-1.595-2.493,7.062,7.062,0,0,0-3.731-.8h-6.8v15.4h3.229v-6.1h2.866a2.5,2.5,0,0,1,1.872.631,2.872,2.872,0,0,1,.61,2.043v.535l.065,1.134a5.085,5.085,0,0,0,.172,1.07,2.409,2.409,0,0,0,.39.684h3.33a2.956,2.956,0,0,1-.546-.983,5.556,5.556,0,0,1-.139-1.455Z" transform="translate(-5480.952 -4880.357)"/><path class="e" d="M5917.569,4887.385a2.3,2.3,0,0,1-1.669.6h-3.059v-4.492h3.059a2.312,2.312,0,0,1,1.733.684,2.133,2.133,0,0,1,.555,1.54A2.218,2.218,0,0,1,5917.569,4887.385Zm2.2-5.477a4.589,4.589,0,0,0-1.626-.942,7.833,7.833,0,0,0-2.225-.256h-6.31v15.4h3.23v-5.476h3.1a5.848,5.848,0,0,0,4.042-1.285,4.6,4.6,0,0,0,1.433-3.614A4.818,4.818,0,0,0,5919.772,4881.908Z" transform="translate(-5840.141 -4880.348)"/><path class="e" d="M6262.7,4885.725q-.3,1.583-2.267,1.583h-3.508V4883.5h3.551q2.266,0,2.268,1.775a3.415,3.415,0,0,1-.044.449Zm2.844,7.958-.042-.621-.042-.428v-.876a3.55,3.55,0,0,0-.642-2.247,2.409,2.409,0,0,0-1.625-.941l.428-.107a3.453,3.453,0,0,0,1.667-1.337,3.811,3.811,0,0,0,.621-2.171c0-.014-.007-.143-.021-.384a3.843,3.843,0,0,0-.063-.557,3.577,3.577,0,0,0-1.594-2.493,7.077,7.077,0,0,0-3.734-.8h-6.8v15.4h3.231v-6.1h2.866a2.5,2.5,0,0,1,1.873.631,2.877,2.877,0,0,1,.609,2.043v.535l.064,1.134a5.1,5.1,0,0,0,.173,1.07,2.4,2.4,0,0,0,.389.684h3.331a2.971,2.971,0,0,1-.545-.983,5.577,5.577,0,0,1-.139-1.455Z" transform="translate(-6171.32 -4880.357)"/><path class="e" d="M6626.85,4896.112h3.229v-15.4h-3.229Z" transform="translate(-6530.491 -4880.347)"/><path class="e" d="M6753.041,4877.869l-.983-.278-.364-.085-1.176-.32-.9-.236-.17-.042-.322-.085c-.385-.128-.639-.221-.759-.277a1.548,1.548,0,0,1-.268-.151,1.178,1.178,0,0,1-.493-1,1.5,1.5,0,0,1,.139-.641,1.364,1.364,0,0,1,.417-.513,2.879,2.879,0,0,1,1.541-.534,2.481,2.481,0,0,0,.385-.043h.363a3.267,3.267,0,0,1,2.054.568,2.1,2.1,0,0,1,.813,1.55v.428h3.167v-.418a2.143,2.143,0,0,0-.043-.417,4.7,4.7,0,0,0-1.84-3.22,6.888,6.888,0,0,0-4.172-1.123,7.5,7.5,0,0,0-4.043.982,3.906,3.906,0,0,0-1.839,2.5,6.806,6.806,0,0,0-.193,1.516,3.273,3.273,0,0,0,.985,2.479,7.644,7.644,0,0,0,3.229,1.558l1.22.32.834.214.235.064.449.128.577.171a3.466,3.466,0,0,1,.813.342,1.341,1.341,0,0,1,.728,1.217,1.619,1.619,0,0,1-.685,1.325,3.988,3.988,0,0,1-2.438.619,3.838,3.838,0,0,1-2.011-.466,2.477,2.477,0,0,1-1.07-1.253,3.826,3.826,0,0,1-.118-.467,2.3,2.3,0,0,1-.032-.361,2.57,2.57,0,0,1,.021-.276h-3.272a5.118,5.118,0,0,0,1.326,3.558,6.038,6.038,0,0,0,3.915,1.854c.114.013.3.042.556.085h.856a7.246,7.246,0,0,0,4.053-1.047,4.549,4.549,0,0,0,2.021-2.733,5.661,5.661,0,0,0,.193-1.41,3.683,3.683,0,0,0-.93-2.553,5.561,5.561,0,0,0-2.771-1.527Z" transform="translate(-6643.077 -4871.031)"/><path class="e" d="M7132.211,4893.332v-3.873h7.209v-2.78h-7.209v-3.209h8.15v-2.76h-11.38v15.4h11.509v-2.781Z" transform="translate(-7013.798 -4880.347)"/><path class="e" d="M4061.942,5470.175l1.561-5.284.128-.405.021-.128c.057-.257.1-.464.118-.622a3.382,3.382,0,0,0,.032-.448,2.946,2.946,0,0,0,.042.459c.029.179.064.382.108.61l.042.128.107.405,1.562,5.284Zm.064-9.456-5.455,15.4h3.594l1.027-3.358h5.284l1.027,3.358h3.593l-5.476-15.4Z" transform="translate(-4056.551 -5438.613)"/><path class="e" d="M4469.517,5465.717q-.3,1.583-2.268,1.583h-3.508v-3.809h3.551q2.266,0,2.267,1.776a3.492,3.492,0,0,1-.042.449Zm2.844,7.957-.042-.619-.042-.429v-.877a3.539,3.539,0,0,0-.642-2.246,2.4,2.4,0,0,0-1.625-.941l.427-.107a3.464,3.464,0,0,0,1.669-1.337,3.822,3.822,0,0,0,.62-2.171c0-.014-.007-.143-.021-.385a3.817,3.817,0,0,0-.064-.557,3.572,3.572,0,0,0-1.595-2.491,7.047,7.047,0,0,0-3.732-.8h-6.8v15.4h3.231v-6.1h2.866a2.5,2.5,0,0,1,1.872.631,2.867,2.867,0,0,1,.609,2.043v.534l.065,1.134a5.054,5.054,0,0,0,.174,1.07,2.374,2.374,0,0,0,.389.684h3.331a2.934,2.934,0,0,1-.546-.983A5.532,5.532,0,0,1,4472.361,5473.674Z" transform="translate(-4445.366 -5438.603)"/><path class="e" d="M4841.936,5471.471q-.149.642-.212.994a6.7,6.7,0,0,0-.065,1.1l-.022.577-.021-.577a7.306,7.306,0,0,0-.086-1.2,6.2,6.2,0,0,0-.213-.9l-2.931-10.761H4833.7v15.4h3.145v-9.776l-.149-1.37-.107-.939-.108-.921.408,1.84.319,1.433,2.824,9.734h3.209l2.824-9.734.3-1.433.214-.919.214-.921-.107.835-.106,1.026-.171,1.434v9.712h3.166v-15.4h-4.686l-2.952,10.761Z" transform="translate(-4804.566 -5438.603)"/><path class="e" d="M5313.96,5469.47h7.209v-2.781h-7.209v-3.209h8.15v-2.76h-11.38v15.4h11.509v-2.781h-8.279Z" transform="translate(-5263.712 -5438.613)"/><path class="e" d="M5668.63,5469.61c0,.057.013.225.043.5s.086.681.17,1.208l.279,1.8a14.106,14.106,0,0,0-.578-1.861,9.4,9.4,0,0,0-.663-1.434l-5.562-9.112h-3.529v15.4h3.229v-9.3l-.278-1.326-.384-2.076.234.855q.192.6.46,1.3a7.768,7.768,0,0,0,.5,1.113l5.733,9.434h3.572v-15.4h-3.23v8.9Z" transform="translate(-5598.724 -5438.603)"/><path class="e" d="M6061.05,5476.122h3.231v-15.4h-3.231Z" transform="translate(-5985.903 -5438.613)"/><path class="e" d="M6169.132,5470.175l1.562-5.284.128-.405.021-.128c.058-.257.1-.464.118-.622a3.3,3.3,0,0,0,.032-.448,2.99,2.99,0,0,0,.043.459q.042.268.107.61l.042.128.107.405,1.562,5.284h-3.723Zm3.657-9.456H6169.2l-5.455,15.4h3.594l1.027-3.358h5.284l1.025,3.358h3.595Z" transform="translate(-6084.743 -5438.613)"/></g></g></g></svg>