<svg xmlns="http://www.w3.org/2000/svg" width="171.561" height="171.651" viewBox="0 0 171.561 171.651"><defs><style>.a{fill:#fff;}</style></defs><g transform="translate(0 0)"><path class="a" d="M205.929,193.415,184.981,213.2l-10.053-10.343a2.9,2.9,0,1,0-4.155,4.038l12.058,12.378a2.95,2.95,0,0,0,4.1.086l23.04-21.732a2.895,2.895,0,0,0,.116-4.1,2.965,2.965,0,0,0-4.155-.116Zm0,0" transform="translate(-104.576 -120.535)"/><path class="a" d="M150.39,90.551a59.524,59.524,0,1,0,59.516,59.523A59.576,59.576,0,0,0,150.39,90.551Zm0,111.08a51.555,51.555,0,1,1,51.549-51.556A51.611,51.611,0,0,1,150.39,201.631Zm0,0" transform="translate(-64.596 -64.242)"/><path class="a" d="M159.77,66.159l1.181-21.213a3.569,3.569,0,0,0-1.967-3.4L140.1,32l-9.551-18.888a3.63,3.63,0,0,0-3.4-1.967L105.9,12.287,88.19.589a3.575,3.575,0,0,0-3.935,0l-17.707,11.7L45.337,11.107a3.563,3.563,0,0,0-3.4,1.967L32.386,31.962,13.5,41.513a3.625,3.625,0,0,0-1.967,3.4l1.179,21.213L1.015,83.831a3.575,3.575,0,0,0,0,3.935l11.662,17.742L11.5,126.721a3.567,3.567,0,0,0,1.967,3.4l18.888,9.551L41.9,158.558a3.625,3.625,0,0,0,3.4,1.967l21.213-1.181,17.707,11.7a3.483,3.483,0,0,0,3.935,0l17.707-11.7,21.213,1.181a3.57,3.57,0,0,0,3.4-1.967l9.551-18.888,18.888-9.551a3.628,3.628,0,0,0,1.967-3.4L159.7,105.508,171.4,87.8a3.575,3.575,0,0,0,0-3.935Zm-6.654,36.416a3.359,3.359,0,0,0-.572,2.183l1.108,20.067-17.85,9.014a3.53,3.53,0,0,0-1.573,1.575l-9.016,17.85-20.067-1.108a3.908,3.908,0,0,0-2.183.572L86.223,163.781l-16.74-11.054a3.541,3.541,0,0,0-1.967-.608h-.179l-20.069,1.109-9.014-17.851a3.523,3.523,0,0,0-1.575-1.573l-17.886-8.979L19.9,104.757a3.909,3.909,0,0,0-.573-2.183L8.277,85.833,19.33,69.092a3.348,3.348,0,0,0,.573-2.181L18.793,46.842l17.851-9.014a3.527,3.527,0,0,0,1.573-1.573L47.232,18.4,67.3,19.513a3.926,3.926,0,0,0,2.183-.573L86.223,7.887,102.964,18.94a3.354,3.354,0,0,0,2.183.573L125.214,18.4l9.016,17.851a3.527,3.527,0,0,0,1.573,1.573l17.85,9.014-1.108,20.069a3.918,3.918,0,0,0,.571,2.181L164.17,85.833Zm0,0" transform="translate(-0.425 0.001)"/></g></svg>