<svg xmlns="http://www.w3.org/2000/svg" width="22.237" height="22.237" viewBox="0 0 22.237 22.237"><defs><style>.a{fill:#707070;}</style></defs><path class="a" d="M11.119,0A11.119,11.119,0,1,0,22.237,11.119,11.131,11.131,0,0,0,11.119,0Zm0,20.216a9.1,9.1,0,1,1,9.1-9.1A9.107,9.107,0,0,1,11.119,20.216Z"/><path class="a" d="M146.349,70a1.348,1.348,0,1,0,1.347,1.348A1.349,1.349,0,0,0,146.349,70Z" transform="translate(-135.231 -65.283)"/><path class="a" d="M151.011,140A1.011,1.011,0,0,0,150,141.011v6.065a1.011,1.011,0,1,0,2.022,0v-6.065A1.011,1.011,0,0,0,151.011,140Z" transform="translate(-139.892 -130.566)"/></svg>