<svg xmlns="http://www.w3.org/2000/svg" width="35.692" height="35.692" viewBox="0 0 35.692 35.692"><defs><style>.a{fill:#585858;}</style></defs><g transform="translate(4067.325 -13306.679)"><path class="a" d="M221.512,214.256A7.256,7.256,0,1,1,214.256,207,7.256,7.256,0,0,1,221.512,214.256Zm0,0" transform="translate(-4263.735 13110.269)"/><path class="a" d="M170.3,140.5a7.209,7.209,0,0,0-4.131-4.131,12.044,12.044,0,0,0-4.042-.749c-2.3-.1-2.984-.127-8.8-.127s-6.5.022-8.8.127a12.051,12.051,0,0,0-4.042.75,7.212,7.212,0,0,0-4.132,4.131,12.048,12.048,0,0,0-.749,4.042c-.1,2.3-.127,2.984-.127,8.8s.023,6.5.127,8.8a12.044,12.044,0,0,0,.749,4.042,7.209,7.209,0,0,0,4.131,4.131,12.029,12.029,0,0,0,4.042.75c2.3.1,2.983.127,8.8.127s6.5-.022,8.8-.127a12.029,12.029,0,0,0,4.042-.75,7.209,7.209,0,0,0,4.131-4.131,12.055,12.055,0,0,0,.75-4.042c.1-2.3.127-2.984.127-8.8s-.022-6.5-.127-8.8A12.03,12.03,0,0,0,170.3,140.5Zm-16.969,24.016a11.178,11.178,0,1,1,11.178-11.178A11.178,11.178,0,0,1,153.331,164.512Zm11.62-20.186a2.612,2.612,0,1,1,2.612-2.612A2.612,2.612,0,0,1,164.951,144.327Zm0,0" transform="translate(-4202.81 13171.19)"/></g></svg>