<svg xmlns="http://www.w3.org/2000/svg" width="36.25" height="36.25" viewBox="0 0 36.25 36.25"><defs><style>.a{fill:#585858;}</style></defs><path class="a" d="M31.908,32.384v0h.009V19.088c0-6.5-1.4-11.514-9-11.514a7.893,7.893,0,0,0-7.11,3.907H15.7v-3.3H8.489v24.2H16V20.4c0-3.155.6-6.206,4.506-6.206,3.85,0,3.907,3.6,3.907,6.409V32.384Z" transform="translate(4.333 3.866)"/><path class="a" d="M.4,7.977H7.912v24.2H.4Z" transform="translate(0.202 4.072)"/><path class="a" d="M4.353,0A4.373,4.373,0,1,0,8.706,4.353,4.354,4.354,0,0,0,4.353,0Z"/></svg>