<svg xmlns="http://www.w3.org/2000/svg" xmlns:xlink="http://www.w3.org/1999/xlink" width="1157" height="476" viewBox="0 0 1157 476"><defs><style>.a{fill:url(#a);}.b{clip-path:url(#b);}.c{fill:#62061c;}.c,.d{fill-rule:evenodd;}.d{fill:#ec8037;}</style><linearGradient id="a" x1="1.049" y1="-0.032" x2="0.3" y2="0.965" gradientUnits="objectBoundingBox"><stop offset="0" stop-color="#fff" stop-opacity="0"/><stop offset="1" stop-color="#fff"/></linearGradient><clipPath id="b"><rect class="a" width="1157" height="452" transform="translate(763 1115)"/></clipPath></defs><g transform="translate(-763 -1091)"><g class="b"><g transform="translate(997 1119)"><path class="c" d="M-626.178,227.083a89.545,89.545,0,0,0,88.563,77.132,89.543,89.543,0,0,0,89.442-89.443,94.608,94.608,0,0,1,94.506-94.5,94.609,94.609,0,0,1,94.5,94.5,89.542,89.542,0,0,0,89.067,89.44v.152h.372A89.546,89.546,0,0,0-80.3,214.918a94.61,94.61,0,0,1,94.515-94.5,94.61,94.61,0,0,1,94.5,94.5,89.441,89.441,0,1,0,178.882,0,94.408,94.408,0,0,1,114.41-92.36v5.189a89.33,89.33,0,0,0-109.35,87.171,94.5,94.5,0,1,1-189.006,0,89.544,89.544,0,0,0-89.44-89.443A89.545,89.545,0,0,0-75.23,214.918a94.61,94.61,0,0,1-94.5,94.492h-.372v-.152a94.611,94.611,0,0,1-94.13-94.5,89.546,89.546,0,0,0-89.44-89.443A89.544,89.544,0,0,0-443.11,214.76a94.612,94.612,0,0,1-94.5,94.5,94.605,94.605,0,0,1-93.665-82.181Z" transform="translate(822.643 -27.427)"/><g transform="translate(0 0)"><path class="d" d="M-589.22,272.51a89.528,89.528,0,0,0,87.865-89.4,94.608,94.608,0,0,1,94.506-94.5,94.61,94.61,0,0,1,94.5,94.5,89.545,89.545,0,0,0,89.437,89.449,89.549,89.549,0,0,0,89.442-89.446,94.438,94.438,0,0,1,2.158-20.089v.152A94.65,94.65,0,0,1-38.955,88.762a94.606,94.606,0,0,1,94.5,94.5,89.441,89.441,0,1,0,178.882,0,94.5,94.5,0,1,1,189.006,0,89.54,89.54,0,0,0,88.689,89.428v5.06a94.611,94.611,0,0,1-93.755-94.495,89.442,89.442,0,0,0-178.885,0,94.5,94.5,0,1,1-189.006,0,89.541,89.541,0,0,0-89.44-89.44A89.54,89.54,0,0,0-128.4,183.26a94.467,94.467,0,0,1-2.905,23.279v-.152a94.674,94.674,0,0,1-91.6,71.224,94.61,94.61,0,0,1-94.5-94.5,89.542,89.542,0,0,0-89.44-89.423,89.542,89.542,0,0,0-89.44,89.423,94.594,94.594,0,0,1-92.929,94.468Z" transform="translate(589.22 -88.604)"/><path class="d" d="M-543.412,170.668a94.455,94.455,0,0,1,37.894-75.625V101.5a89.349,89.349,0,0,0-32.834,69.169,94.592,94.592,0,0,1-92.926,94.468V260.07A89.53,89.53,0,0,0-543.412,170.668Z" transform="translate(1730.168 -76.165)"/></g><g transform="translate(0 197.345)"><path class="d" d="M-589.22,272.51a89.528,89.528,0,0,0,87.865-89.4,94.608,94.608,0,0,1,94.506-94.5,94.61,94.61,0,0,1,94.5,94.5,89.545,89.545,0,0,0,89.437,89.449,89.549,89.549,0,0,0,89.442-89.446,94.438,94.438,0,0,1,2.158-20.089v.152A94.65,94.65,0,0,1-38.955,88.762a94.606,94.606,0,0,1,94.5,94.5,89.441,89.441,0,1,0,178.882,0,94.5,94.5,0,1,1,189.006,0,89.54,89.54,0,0,0,88.689,89.428v5.06a94.611,94.611,0,0,1-93.755-94.495,89.442,89.442,0,0,0-178.885,0,94.5,94.5,0,1,1-189.006,0,89.541,89.541,0,0,0-89.44-89.44A89.54,89.54,0,0,0-128.4,183.26a94.467,94.467,0,0,1-2.905,23.279v-.152a94.674,94.674,0,0,1-91.6,71.224,94.61,94.61,0,0,1-94.5-94.5,89.542,89.542,0,0,0-89.44-89.423,89.542,89.542,0,0,0-89.44,89.423,94.594,94.594,0,0,1-92.929,94.468Z" transform="translate(589.22 -88.604)"/><path class="d" d="M-543.412,170.668a94.455,94.455,0,0,1,37.894-75.625V101.5a89.349,89.349,0,0,0-32.834,69.169,94.592,94.592,0,0,1-92.926,94.468V260.07A89.53,89.53,0,0,0-543.412,170.668Z" transform="translate(1730.168 -76.165)"/></g></g></g><rect class="a" width="1157" height="432" transform="translate(763 1091)"/></g></svg>