<svg xmlns="http://www.w3.org/2000/svg" width="149.555" height="142.675" viewBox="0 0 149.555 142.675"><defs><style>.a{fill:#fff;}</style></defs><g transform="translate(0.001 0)"><g transform="translate(-0.001 81.292)"><path class="a" d="M12.93,270.313H6.964A6.985,6.985,0,0,0,0,277.3V321.62a6.985,6.985,0,0,0,6.964,6.99H12.93a6.985,6.985,0,0,0,6.964-6.99V277.3A6.985,6.985,0,0,0,12.93,270.313Zm2.92,51.307a2.929,2.929,0,0,1-2.92,2.931H6.964a2.929,2.929,0,0,1-2.92-2.931V277.3a2.929,2.929,0,0,1,2.92-2.931H12.93a2.929,2.929,0,0,1,2.92,2.931Z" transform="translate(0 -270.313)"/></g><g transform="translate(8.526 0)"><path class="a" d="M178.8,106.42a9.244,9.244,0,0,0-12.6-2.385L154.353,111.8a22.439,22.439,0,0,0-5.672-10.012,23.215,23.215,0,0,0-11.989-6.481,22.911,22.911,0,0,0-18.607-15.542,23.2,23.2,0,0,0-12.539-5.12V67.751l5.326-4.514A59.142,59.142,0,0,0,127.206,67.6a48.756,48.756,0,0,0,5.515.32c11.021,0,20.467-4,27.548-11.718,12.794-13.95,12.75-35.579,12.742-36.493,0-.008,0-.017,0-.025a2.194,2.194,0,0,0-.023-.28c-.008-.055-.02-.109-.032-.163l-.009-.039a2.2,2.2,0,0,0-3.852-.929c-.221.2-1.728,1.456-6.027,2.992-4.263,1.524-12.235,3.644-26,5.092-16.6,1.745-23.56,11.1-26.48,18.638A37.744,37.744,0,0,0,108.2,59.7l-2.652,2.247V57.511a2.154,2.154,0,0,0,0-.828V23.964a2.241,2.241,0,0,0-4.48,0v28.3l-2.02-1.712a34.741,34.741,0,0,0-2.2-13.444c-2.691-6.949-9.108-15.571-24.394-17.178-12.532-1.318-19.8-3.244-23.691-4.627s-5.287-2.519-5.508-2.714a2.194,2.194,0,0,0-3.852.939l-.005.022c-.013.058-.026.115-.034.174a2.187,2.187,0,0,0-.023.28c0,.008,0,.017,0,.025-.007.839-.048,20.706,11.711,33.528C57.57,54.663,66.262,58.342,76.4,58.342a44.788,44.788,0,0,0,5.072-.294,54.4,54.4,0,0,0,14.9-3.961l4.693,3.978V66.5a2.161,2.161,0,0,0,0,.55v7.609a23.2,23.2,0,0,0-12.418,5.107A22.911,22.911,0,0,0,70.041,95.306a23.386,23.386,0,0,0-3.448.979,44.647,44.647,0,0,0-5.9-.393H57.807a2.194,2.194,0,1,0,0,4.386h2.887a40.066,40.066,0,0,1,5.893.441q1.208.179,2.4.431c.148.031.3.062.443.095q.281.063.561.129.358.085.713.177c.114.029.229.057.343.087q.557.149,1.11.314l.189.058q.516.157,1.027.327l.133.044q1.179.4,2.332.869l.1.04q.565.233,1.123.482l.019.008q.569.255,1.13.529l.136.068q.459.226.913.464l.255.134c.345.184.688.372,1.028.566a44.185,44.185,0,0,0,15.97,5.441l.058.007L119.7,113.6a8.688,8.688,0,0,1,7.505,7.683l.088.866L86.67,120.574a.561.561,0,0,1-.349-.193.536.536,0,0,1-.129-.405,2.24,2.24,0,0,0-4.462-.4,4.839,4.839,0,0,0,1.151,3.611,5.05,5.05,0,0,0,3.421,1.757c.038,0,.075.006.113.007l45.814,1.774,6.072.334c.042,0,.084,0,.125,0s.1-.007.144-.011.087,0,.13-.009a2.24,2.24,0,0,0,.229-.042c.037-.008.074-.014.11-.024a2.238,2.238,0,0,0,.243-.086c.027-.011.056-.019.083-.032a2.256,2.256,0,0,0,.306-.167l14.313-9.378,0,0,14.708-9.636a4.693,4.693,0,0,1,6.4,1.21,4.47,4.47,0,0,1-.762,5.936l-28.691,25.262a17.626,17.626,0,0,1-8.212,3.592l-44.439,6.271-.061.009a9.886,9.886,0,0,1-4.086-.254L58.659,138.514a2.255,2.255,0,0,0-2.888,1.274,2.18,2.18,0,0,0,1.3,2.828L87.349,153.84c.061.022.122.043.185.06a14.881,14.881,0,0,0,3.973.552,13.9,13.9,0,0,0,2.129-.163h.009l44.438-6.271.033,0a22.16,22.16,0,0,0,10.395-4.56c.028-.022.056-.045.082-.069l28.722-25.289A8.8,8.8,0,0,0,178.8,106.42ZM156.936,53.273c-7.3,7.958-17.085,11.318-29.079,9.987a54.954,54.954,0,0,1-12.975-3.154q2.454-1.806,4.767-3.337a37.947,37.947,0,0,0,14.145,3.207,22.679,22.679,0,0,0,2.823-.171,2.2,2.2,0,0,0,1.937-2.455,2.23,2.23,0,0,0-2.507-1.9c-4.185.525-8.66-.573-11.736-1.614a141.41,141.41,0,0,1,17.972-8.786l1.5-.64a40.126,40.126,0,0,0,11.3,1.507h.376a2.193,2.193,0,1,0-.018-4.386h-.019a40.816,40.816,0,0,1-4.74-.239,47.885,47.885,0,0,0,17.152-13.567C166.753,34.944,163.991,45.58,156.936,53.273Zm-42.165-6.722c3.6-9.295,11.26-14.622,22.769-15.832,12.773-1.343,21-3.275,26.241-5.055-6.455,7.736-12.945,10.926-21.006,14.395l-.019.008q-1.109.478-2.259.966c-1.735.739-3.518,1.5-5.359,2.319a21.312,21.312,0,0,1,2-5.782,2.171,2.171,0,0,0-.963-2.955,2.264,2.264,0,0,0-3.018.943A26.738,26.738,0,0,0,130.31,45.6,114.747,114.747,0,0,0,112.717,56.21,32.7,32.7,0,0,1,114.771,46.551ZM80.96,53.69c-10.974,1.248-19.913-1.8-26.575-9.066-6.212-6.774-8.771-16.061-9.825-22.615a43.8,43.8,0,0,0,8.42,7.877,49.757,49.757,0,0,0,6.354,3.782,37.851,37.851,0,0,1-4.66.131,2.194,2.194,0,1,0-.149,4.384q.724.024,1.414.023a37.06,37.06,0,0,0,10.333-1.368l1.309.558a130.483,130.483,0,0,1,16.087,7.828,24.287,24.287,0,0,1-10.562,1.3,2.234,2.234,0,0,0-2.546,1.845,2.2,2.2,0,0,0,1.885,2.493,20.609,20.609,0,0,0,2.98.209,34.868,34.868,0,0,0,12.93-2.91q1.946,1.293,4,2.792A49.944,49.944,0,0,1,80.96,53.69ZM78.794,37.6a24.2,24.2,0,0,0-3.172-10.146,2.268,2.268,0,0,0-3.067-.776,2.168,2.168,0,0,0-.793,3,18.6,18.6,0,0,1,2.169,5.661c-1.564-.693-3.082-1.339-4.563-1.97C61.212,29.9,54.842,27.183,48.55,19.857c4.841,1.579,12.235,3.254,23.427,4.431,10.4,1.094,17.339,5.883,20.63,14.235a29.5,29.5,0,0,1,1.886,8.52A105.1,105.1,0,0,0,78.794,37.6Zm59.01,85.039-5.987-.329-.149-1.465a13.108,13.108,0,0,0-11.363-11.6l-.058-.007L97.1,106.636a39.663,39.663,0,0,1-14.307-4.88c-.393-.225-.789-.442-1.187-.654-.105-.056-.211-.11-.317-.164q-.456-.238-.915-.466l-.326-.158q-.481-.233-.967-.453l-.26-.117q-.572-.255-1.15-.493l-.09-.038q-1.316-.539-2.665-.992l-.07-.023c-.3-.1-.6-.2-.9-.292.017-.051.032-.1.045-.156A18.407,18.407,0,0,1,89.856,84.032a2.265,2.265,0,0,0,1.234-.539,18.784,18.784,0,0,1,24.555,0,2.267,2.267,0,0,0,1.234.539,18.407,18.407,0,0,1,15.858,13.715,2.223,2.223,0,0,0,1.874,1.657,18.454,18.454,0,0,1,15.734,15.019Z" transform="translate(-39.34 -11.777)"/></g></g></svg>