<svg xmlns="http://www.w3.org/2000/svg" width="41.833" height="33.999" viewBox="0 0 41.833 33.999"><defs><style>.a{fill:#585858;}</style></defs><path class="a" d="M153.356,150.091q.025.552.025,1.109c0,11.341-8.633,24.42-24.42,24.42h0a24.294,24.294,0,0,1-13.156-3.855,17.456,17.456,0,0,0,2.047.119,17.222,17.222,0,0,0,10.66-3.674,8.592,8.592,0,0,1-8.018-5.961,8.554,8.554,0,0,0,3.877-.147,8.585,8.585,0,0,1-6.886-8.413c0-.039,0-.074,0-.11a8.524,8.524,0,0,0,3.887,1.073,8.59,8.59,0,0,1-2.657-11.458,24.368,24.368,0,0,0,17.691,8.968,8.588,8.588,0,0,1,14.626-7.827,17.215,17.215,0,0,0,5.45-2.083A8.616,8.616,0,0,1,152.709,147a17.118,17.118,0,0,0,4.929-1.352,17.442,17.442,0,0,1-4.281,4.445Zm0,0" transform="translate(-115.805 -141.622)"/></svg>